<svg xmlns="http://www.w3.org/2000/svg" viewBox="0 0 1600 560" role="img" aria-label="Une note de version transformée en emails segmentés">
  <rect width="1600" height="560" fill="#EBE5D9"/>
  <rect x="80" y="110" width="440" height="340" rx="24" fill="#1F4138"/>
  <rect x="124" y="150" width="220" height="22" rx="11" fill="#E8E1D0"/>
  <rect x="124" y="196" width="360" height="14" rx="7" fill="#8FA5AB" opacity="0.65"/>
  <rect x="124" y="230" width="330" height="14" rx="7" fill="#8FA5AB" opacity="0.65"/>
  <rect x="124" y="264" width="360" height="14" rx="7" fill="#8FA5AB" opacity="0.65"/>
  <rect x="124" y="298" width="300" height="14" rx="7" fill="#8FA5AB" opacity="0.65"/>
  <rect x="124" y="332" width="340" height="14" rx="7" fill="#8FA5AB" opacity="0.4"/>
  <rect x="124" y="366" width="260" height="14" rx="7" fill="#8FA5AB" opacity="0.4"/>
  <line x1="545" y1="280" x2="760" y2="280" stroke="#A55E2D" stroke-width="9" stroke-linecap="round"/>
  <polygon points="760,258 800,280 760,302" fill="#A55E2D"/>
  <circle cx="662" cy="280" r="30" fill="#EBE5D9" stroke="#A55E2D" stroke-width="4"/>
  <circle cx="650" cy="272" r="4.5" fill="#A55E2D"/>
  <circle cx="674" cy="272" r="4.5" fill="#A55E2D"/>
  <circle cx="662" cy="291" r="4.5" fill="#A55E2D"/>
  <g>
    <rect x="800" y="70" width="700" height="120" rx="18" fill="#FFFFFF" stroke="#DCD5C7" stroke-width="2"/>
    <rect x="826" y="96" width="30" height="30" rx="9" fill="#2D5A4F"/>
    <rect x="874" y="100" width="200" height="16" rx="8" fill="#1A2421" opacity="0.82"/>
    <rect x="826" y="142" width="460" height="12" rx="6" fill="#5A625E" opacity="0.5"/>
    <rect x="826" y="162" width="380" height="12" rx="6" fill="#5A625E" opacity="0.5"/>
    <path d="M1408 128 l12 14 l26 -30" fill="none" stroke="#A55E2D" stroke-width="7" stroke-linecap="round" stroke-linejoin="round"/>
  </g>
  <g>
    <rect x="830" y="220" width="700" height="120" rx="18" fill="#FFFFFF" stroke="#DCD5C7" stroke-width="2"/>
    <rect x="856" y="246" width="30" height="30" rx="9" fill="#2D5A4F"/>
    <rect x="904" y="250" width="200" height="16" rx="8" fill="#1A2421" opacity="0.82"/>
    <rect x="856" y="292" width="460" height="12" rx="6" fill="#5A625E" opacity="0.5"/>
    <rect x="856" y="312" width="380" height="12" rx="6" fill="#5A625E" opacity="0.5"/>
    <path d="M1438 278 l12 14 l26 -30" fill="none" stroke="#A55E2D" stroke-width="7" stroke-linecap="round" stroke-linejoin="round"/>
  </g>
  <g>
    <rect x="860" y="370" width="700" height="120" rx="18" fill="#FFFFFF" stroke="#DCD5C7" stroke-width="2"/>
    <rect x="886" y="396" width="30" height="30" rx="9" fill="#2D5A4F"/>
    <rect x="934" y="400" width="200" height="16" rx="8" fill="#1A2421" opacity="0.82"/>
    <rect x="886" y="442" width="460" height="12" rx="6" fill="#5A625E" opacity="0.5"/>
    <rect x="886" y="462" width="380" height="12" rx="6" fill="#5A625E" opacity="0.5"/>
    <path d="M1468 428 l12 14 l26 -30" fill="none" stroke="#A55E2D" stroke-width="7" stroke-linecap="round" stroke-linejoin="round"/>
  </g>
</svg>
